<mxfile host="app.diagrams.net" modified="2022-10-04T09:08:48.012Z" agent="5.0 (Windows NT 10.0; Win64; x64) AppleWebKit/537.36 (KHTML, like Gecko) Chrome/105.0.0.0 Safari/537.36" etag="7uryX2JD4GWR-6TGXilK" version="20.4.0" type="github">
  <diagram id="x47f4F8YIXxUeN7TtiMZ" name="Page-1">
    <mxGraphModel dx="1185" dy="1804" grid="1" gridSize="10" guides="1" tooltips="1" connect="1" arrows="1" fold="1" page="1" pageScale="1" pageWidth="827" pageHeight="1169" math="0" shadow="0">
      <root>
        <mxCell id="0" />
        <mxCell id="1" parent="0" />
        <mxCell id="cswATQxda-wb4egpuiIa-2" value="BO" style="rounded=0;whiteSpace=wrap;html=1;fillColor=none;gradientColor=default;" vertex="1" parent="1">
          <mxGeometry x="80" y="60" width="80" height="40" as="geometry" />
        </mxCell>
        <mxCell id="cswATQxda-wb4egpuiIa-3" value="Public API - API.Facade" style="rounded=0;whiteSpace=wrap;html=1;fillColor=none;gradientColor=default;" vertex="1" parent="1">
          <mxGeometry x="310" y="140" width="140" height="60" as="geometry" />
        </mxCell>
        <mxCell id="cswATQxda-wb4egpuiIa-6" value="Rest Service" style="rounded=0;whiteSpace=wrap;html=1;fillColor=none;gradientColor=default;" vertex="1" parent="1">
          <mxGeometry x="80" y="140" width="80" height="40" as="geometry" />
        </mxCell>
        <mxCell id="cswATQxda-wb4egpuiIa-7" value="" style="rounded=0;whiteSpace=wrap;html=1;fillColor=none;gradientColor=default;dashed=1;" vertex="1" parent="1">
          <mxGeometry x="60" y="45" width="120" height="150" as="geometry" />
        </mxCell>
        <mxCell id="cswATQxda-wb4egpuiIa-9" value="" style="endArrow=classic;startArrow=classic;html=1;rounded=0;entryX=0.5;entryY=1;entryDx=0;entryDy=0;exitX=0.5;exitY=0;exitDx=0;exitDy=0;" edge="1" parent="1" source="cswATQxda-wb4egpuiIa-6" target="cswATQxda-wb4egpuiIa-2">
          <mxGeometry width="50" height="50" relative="1" as="geometry">
            <mxPoint x="110" y="110" as="sourcePoint" />
            <mxPoint x="160" y="60" as="targetPoint" />
          </mxGeometry>
        </mxCell>
        <mxCell id="cswATQxda-wb4egpuiIa-12" value="FE" style="rounded=0;whiteSpace=wrap;html=1;fillColor=none;gradientColor=default;" vertex="1" parent="1">
          <mxGeometry x="335" y="260" width="90" height="30" as="geometry" />
        </mxCell>
        <mxCell id="cswATQxda-wb4egpuiIa-18" value="" style="endArrow=classic;startArrow=classic;html=1;rounded=0;exitX=0.5;exitY=0;exitDx=0;exitDy=0;" edge="1" parent="1" source="cswATQxda-wb4egpuiIa-12" target="cswATQxda-wb4egpuiIa-3">
          <mxGeometry width="50" height="50" relative="1" as="geometry">
            <mxPoint x="230" y="430" as="sourcePoint" />
            <mxPoint x="280" y="380" as="targetPoint" />
          </mxGeometry>
        </mxCell>
        <mxCell id="cswATQxda-wb4egpuiIa-19" value="" style="endArrow=classic;startArrow=classic;html=1;rounded=0;exitX=0.992;exitY=0.836;exitDx=0;exitDy=0;exitPerimeter=0;entryX=0;entryY=0.5;entryDx=0;entryDy=0;" edge="1" parent="1" source="cswATQxda-wb4egpuiIa-7" target="cswATQxda-wb4egpuiIa-3">
          <mxGeometry width="50" height="50" relative="1" as="geometry">
            <mxPoint x="320" y="200" as="sourcePoint" />
            <mxPoint x="290" y="139.99999999999977" as="targetPoint" />
          </mxGeometry>
        </mxCell>
        <mxCell id="cswATQxda-wb4egpuiIa-25" value="&lt;b&gt;Primary Azure VM / MemoryCached&lt;/b&gt;" style="text;html=1;strokeColor=none;fillColor=none;align=center;verticalAlign=middle;whiteSpace=wrap;rounded=0;dashed=1;" vertex="1" parent="1">
          <mxGeometry x="40" y="-180" width="150" height="30" as="geometry" />
        </mxCell>
        <mxCell id="cswATQxda-wb4egpuiIa-26" value="Caching Gateway&lt;br&gt;(Redis / MemoryCached)" style="shape=cylinder3;whiteSpace=wrap;html=1;boundedLbl=1;backgroundOutline=1;size=15;dashed=1;fillColor=none;gradientColor=default;" vertex="1" parent="1">
          <mxGeometry x="185" y="-120" width="160" height="120" as="geometry" />
        </mxCell>
        <mxCell id="cswATQxda-wb4egpuiIa-27" value="Azure Redis" style="shape=cylinder3;whiteSpace=wrap;html=1;boundedLbl=1;backgroundOutline=1;size=15;dashed=1;fillColor=none;gradientColor=default;" vertex="1" parent="1">
          <mxGeometry x="175" y="-330" width="180" height="80" as="geometry" />
        </mxCell>
        <mxCell id="cswATQxda-wb4egpuiIa-28" value="" style="endArrow=classic;startArrow=classic;html=1;rounded=0;exitX=0.5;exitY=0;exitDx=0;exitDy=0;exitPerimeter=0;" edge="1" parent="1" source="cswATQxda-wb4egpuiIa-26" target="cswATQxda-wb4egpuiIa-27">
          <mxGeometry width="50" height="50" relative="1" as="geometry">
            <mxPoint x="270" y="-30" as="sourcePoint" />
            <mxPoint x="320" y="-80" as="targetPoint" />
          </mxGeometry>
        </mxCell>
        <mxCell id="cswATQxda-wb4egpuiIa-30" value="" style="endArrow=classic;startArrow=classic;html=1;rounded=0;exitX=0.5;exitY=0;exitDx=0;exitDy=0;entryX=0.5;entryY=1;entryDx=0;entryDy=0;entryPerimeter=0;" edge="1" parent="1" source="cswATQxda-wb4egpuiIa-7" target="cswATQxda-wb4egpuiIa-26">
          <mxGeometry width="50" height="50" relative="1" as="geometry">
            <mxPoint x="270" y="-30" as="sourcePoint" />
            <mxPoint x="320" y="-80" as="targetPoint" />
          </mxGeometry>
        </mxCell>
        <mxCell id="cswATQxda-wb4egpuiIa-35" value="" style="endArrow=classic;startArrow=classic;html=1;rounded=0;entryX=0.5;entryY=1;entryDx=0;entryDy=0;entryPerimeter=0;exitX=0.5;exitY=0;exitDx=0;exitDy=0;" edge="1" parent="1" source="cswATQxda-wb4egpuiIa-3" target="cswATQxda-wb4egpuiIa-26">
          <mxGeometry width="50" height="50" relative="1" as="geometry">
            <mxPoint x="270" y="50" as="sourcePoint" />
            <mxPoint x="320" as="targetPoint" />
          </mxGeometry>
        </mxCell>
        <mxCell id="cswATQxda-wb4egpuiIa-37" value="Caching Viewer" style="rhombus;whiteSpace=wrap;html=1;dashed=1;fillColor=none;gradientColor=default;" vertex="1" parent="1">
          <mxGeometry x="520" y="-115" width="150" height="110" as="geometry" />
        </mxCell>
        <mxCell id="cswATQxda-wb4egpuiIa-38" value="" style="endArrow=classic;startArrow=classic;html=1;rounded=0;exitX=0;exitY=0.5;exitDx=0;exitDy=0;entryX=1;entryY=0.5;entryDx=0;entryDy=0;entryPerimeter=0;" edge="1" parent="1" source="cswATQxda-wb4egpuiIa-37" target="cswATQxda-wb4egpuiIa-26">
          <mxGeometry width="50" height="50" relative="1" as="geometry">
            <mxPoint x="270" as="sourcePoint" />
            <mxPoint x="320" y="-50" as="targetPoint" />
          </mxGeometry>
        </mxCell>
        <mxCell id="cswATQxda-wb4egpuiIa-39" value="&lt;div style=&quot;text-align: left;&quot;&gt;&lt;span style=&quot;background-color: initial;&quot;&gt;1 - Redis / Redis remote manager&amp;nbsp;&lt;/span&gt;&lt;/div&gt;&lt;div style=&quot;text-align: left;&quot;&gt;&lt;span style=&quot;background-color: initial;&quot;&gt;2 - Memory Cache&lt;/span&gt;&lt;/div&gt;" style="text;html=1;strokeColor=none;fillColor=none;align=center;verticalAlign=middle;whiteSpace=wrap;rounded=0;dashed=1;" vertex="1" parent="1">
          <mxGeometry x="510" width="220" height="50" as="geometry" />
        </mxCell>
      </root>
    </mxGraphModel>
  </diagram>
</mxfile>
